<svg xmlns="http://www.w3.org/2000/svg" width="254" height="94" viewBox="0 0 254 94">
    <g fill="none" fill-rule="evenodd">
        <path fill="#FF500A" d="M229.507 36.918c-.012.163 9.847-3.793 23.537-6.66.641-.136-.017-4.25.017-3.911-.325-3.123-.862-6.264-1.464-9.377-.604-3.12-1.23-6.245-2.088-9.35-.14-.513-.701-3.767-1.488-3.846-67.64-6.783-135.672-2.405-202.687.325-18.92.77-25.768.988-44.682 1.792-1.553.067 3.394 26.552 5.023 26.483 31.1-1.322 39.081-.402 40.461-.305-1.234.132-10.712 1.78-10.712 1.78-1.398-.294 2.202 20.96 4.316 25.581l-17.21 1.619c-1.443.135 1.232 12.18 1.446 13.287.603 3.12 1.231 6.245 2.088 9.35.156.565.62 3.699 1.488 3.846 24.294 4.127 171.217 11.61 214.296-.302.666-.184-.01-4.178.018-3.91-.324-3.123-.864-6.264-1.465-9.378-.1-.513-.525-3.387-1.113-6.322l11.298-1.062c1.445-.136-2.81-26.361-5.023-26.484-4.277-1.038-16.056-3.156-16.056-3.156z"/>
    </g>
</svg>
